<svg xmlns="http://www.w3.org/2000/svg" xml:space="preserve" viewBox="0 0 200 200">
    <path
        d="M141.7 53.4c2.9 3.1 6 6 8.6 9.3 10.2 13.3 14.8 28.4 12.8 45.1-2.6 21.8-13.8 38.1-33.1 48.5-18.9 10.1-38.6 10.3-57.9 1-17.3-8.4-28.6-22.1-33.4-40.5-8.3-32 9.6-63.7 39.6-74.5 9.4-3.4 19.1-4.7 29.1-3.4 1.6.2 2.2.8 2.2 2.3 0 19.7 0 39.4-.1 59.1 0 4.2-1 8.2-4.5 11.1-4.7 3.7-9.9 3.5-14.8 1-3.2-1.6-5.9-4.3-8.6-6.7-1.5-1.4-2.4-1.5-3.9 0q-8.1 7.8-16.5 15.3c-1.4 1.3-1.5 2.3-.3 3.7 7.3 8.7 16.4 14.2 27.8 16 10.9 1.7 21.5 1.3 31.5-3.6 10.2-5 16.8-13.1 19.1-24.3 1-4.8 1.5-9.7 1.6-14.5.2-13.7.1-27.3.1-41 0-1.1.1-2.3.1-3.4.1-.2.4-.3.6-.5M110 16.4c.1-7.5 6.5-14 13.9-13.9 8.1 0 14.4 6.2 14.3 14.1 0 7.6-6.6 14-14.4 13.9-7.5-.2-13.9-6.7-13.8-14.1" />
    <path
        d="M192.1 69.3c-7.4-20.6-20.7-37.2-39.8-49.5l-1.8-1.2c-1-.6-3.2-2-5.5-1.1-2.3.8-3.2 3.2-3.5 4.3-.1.3-.2.8-.3 1.3 0 .1-.1.2-.1.2-.3.8-.1 1.3.2 1.7.4 1.2 1.3 2.5 3.5 3.4.1 0 .2.1.2.1l1.5.9c12.7 8 22.7 18.7 29.7 31.7.4.7.7 1.4 1.1 2.1 7.7 15.8 10.4 32.6 8 50.3-.4 3-1 5.9-1.6 8.7-3.4 13.3-9.9 25.4-19.5 36-8.8 9.7-19.7 17.2-32.4 22.1-15.2 5.9-30.9 7.4-46.9 4.5-21.8-4-39.6-14.7-52.8-31.9-16.2-21.1-21.5-44.9-15.7-70.8C21 61.6 32.3 44.7 50 32c14.7-10.5 31.4-15.9 49.6-16 1.3 0 2.8-.1 4-.7 2.3-1.1 1.9-2.5 2-4 .1-1.4 1.2-4.3-3.5-6.1l-6.7.1c-4.9.4-10 .7-14.9 1.6-14 2.5-27.2 8.4-39.1 17.6C22.5 38.9 10.5 57.2 5.4 79c-.8 3.2-1.4 6.5-1.9 9.9-2.1 14.7-.8 29.1 4.2 43.1 1.5 4.2 3.3 8.2 5.3 12.1 5.8 11.5 13.8 21.6 23.9 30.1 14.8 12.5 32 20.1 51.2 22.5 4.1.5 8.1.8 12.2.8 7.1 0 14.1-.8 21.1-2.3 19.1-4.3 35.6-13.5 49-27.3 14.5-15 23.3-32.9 26.2-53.1 2.1-15.8.6-31.1-4.5-45.5" />
</svg>